
  <svg
    width="1000"
    height="1000"
    viewBox="0 0 1000 1000"
    xmlns="http://www.w3.org/2000/svg"
  >
    <defs>
      
      
      
      
      
      <pattern
        id="pattern"
        patternUnits="userSpaceOnUse"
        width="260"
        height="260"
        viewBox="0 0 100 100"
        fill="#7848b0"
      >
      <svg width="100" height="100" viewBox="0 0 100 100" fill="none" xmlns="http://www.w3.org/2000/svg">
<g clip-path="url(#clip-organic)">
<path d="M38.7903 104.655C36.8045 108.26 33.7423 110.041 29.6037 109.999C25.4651 109.958 22.8493 108.155 21.7563 104.592C20.6632 101.03 20.755 97.6295 22.0316 94.392C23.3082 91.1546 25.7155 89.7069 29.2533 90.049C32.7911 90.3911 35.7615 92.0099 38.1645 94.9052C40.5676 97.8005 40.7762 101.05 38.7903 104.655Z" fill="#7848b0"/>
<path d="M3.12052 94.4826C7.08554 96.667 9.0451 100.035 8.99921 104.588C8.95332 109.14 6.97081 112.018 3.05169 113.22C-0.867437 114.422 -4.60759 114.321 -8.16876 112.917C-11.7299 111.513 -13.3224 108.865 -12.9461 104.973C-12.5697 101.082 -10.7892 97.8143 -7.6043 95.1709C-4.41943 92.5276 -0.844492 92.2981 3.12052 94.4826Z" fill="#7848b0"/>
<path d="M16.7397 83.4955C14.0708 88.8461 10.0101 90.8956 4.55736 89.6442C-0.895334 88.3927 -4.80927 85.7175 -7.18445 81.6184C-9.55963 77.5193 -9.60433 73.3499 -7.31853 69.1104C-5.03274 64.8708 -1.30397 62.5212 3.86779 62.0614C9.03955 61.6017 13.145 63.7215 16.1842 68.4208C19.2235 73.1201 19.4086 78.145 16.7397 83.4955Z" fill="#7848b0"/>
<path d="M38.7903 4.65502C36.8045 8.25958 33.7423 10.041 29.6037 9.99928C25.4651 9.95757 22.8493 8.15528 21.7563 4.59244C20.6632 1.0296 20.755 -2.37053 22.0316 -5.60796C23.3082 -8.84539 25.7155 -10.2931 29.2533 -9.95096C32.7911 -9.60886 35.7615 -7.99014 38.1645 -5.09481C40.5676 -2.19948 40.7762 1.05046 38.7903 4.65502Z" fill="#7848b0"/>
<path d="M3.12052 -5.51743C7.08554 -3.333 9.0451 0.0354321 8.99921 4.58786C8.95332 9.14028 6.97081 12.0177 3.05169 13.22C-0.867437 14.4224 -4.60759 14.3214 -8.16876 12.9171C-11.7299 11.5129 -13.3224 8.86494 -12.9461 4.97335C-12.5697 1.08176 -10.7892 -2.18571 -7.6043 -4.82905C-4.41943 -7.4724 -0.844492 -7.70186 3.12052 -5.51743Z" fill="#7848b0"/>
<path d="M15.514 40.0461C11.2542 43.6624 6.60199 46.2234 1.55722 47.7291C-3.48754 49.2348 -7.54781 47.4267 -10.6236 42.3047C-13.6993 37.1827 -13.7894 31.8999 -10.8938 26.4561C-7.99824 21.0124 -3.82215 19.0113 1.63444 20.4526C7.09102 21.894 11.8334 24.6158 15.8615 28.6182C19.8895 32.6205 19.7737 36.4299 15.514 40.0461Z" fill="#7848b0"/>
<path d="M79.8915 102.409C77.6072 106.254 73.9719 108.635 68.9854 109.555C63.999 110.474 59.6672 108.552 55.99 103.788C52.3129 99.0247 52.0274 93.7596 55.1334 87.9932C58.2395 82.2268 62.9822 79.5803 69.3615 80.0539C75.7408 80.5275 79.6617 83.4107 81.1242 88.7036C82.5867 93.9964 82.1758 98.565 79.8915 102.409Z" fill="#7848b0"/>
<path d="M103.121 94.4826C107.086 96.667 109.045 100.035 108.999 104.588C108.953 109.14 106.971 112.018 103.052 113.22C99.1326 114.422 95.3924 114.321 91.8312 112.917C88.2701 111.513 86.6776 108.865 87.0539 104.973C87.4303 101.082 89.2108 97.8143 92.3957 95.1709C95.5806 92.5276 99.1555 92.2981 103.121 94.4826Z" fill="#7848b0"/>
<path d="M116.74 83.4955C114.071 88.8461 110.01 90.8956 104.557 89.6442C99.1047 88.3927 95.1907 85.7175 92.8155 81.6184C90.4404 77.5193 90.3957 73.3499 92.6815 69.1104C94.9673 64.8708 98.696 62.5212 103.868 62.0614C109.04 61.6017 113.145 63.7215 116.184 68.4208C119.223 73.1201 119.409 78.145 116.74 83.4955Z" fill="#7848b0"/>
<path d="M79.8915 2.4093C77.6072 6.25359 73.9719 8.63538 68.9854 9.55467C63.999 10.474 59.6672 8.55181 55.99 3.78823C52.3129 -0.975347 52.0274 -6.24035 55.1334 -12.0068C58.2395 -17.7732 62.9822 -20.4197 69.3615 -19.9461C75.7408 -19.4725 79.6617 -16.5893 81.1242 -11.2964C82.5867 -6.00357 82.1758 -1.43499 79.8915 2.4093Z" fill="#7848b0"/>
<path d="M103.121 -5.51743C107.086 -3.333 109.045 0.0354321 108.999 4.58786C108.953 9.14028 106.971 12.0177 103.052 13.22C99.1326 14.4224 95.3924 14.3214 91.8312 12.9171C88.2701 11.5129 86.6776 8.86494 87.0539 4.97335C87.4303 1.08176 89.2108 -2.18571 92.3957 -4.82905C95.5806 -7.4724 99.1555 -7.70186 103.121 -5.51743Z" fill="#7848b0"/>
<path d="M115.514 40.0461C111.254 43.6624 106.602 46.2234 101.557 47.7291C96.5125 49.2348 92.4522 47.4267 89.3764 42.3047C86.3007 37.1827 86.2106 31.8999 89.1062 26.4561C92.0018 21.0124 96.1779 19.0113 101.634 20.4526C107.091 21.894 111.833 24.6158 115.861 28.6182C119.89 32.6205 119.774 36.4299 115.514 40.0461Z" fill="#7848b0"/>
<path d="M57.4771 47.0639C54.7184 51.7067 50.3279 54.5832 44.3057 55.6934C38.2836 56.8037 33.052 54.4823 28.6111 48.7293C24.1702 42.9763 23.8253 36.6177 27.5766 29.6535C31.3278 22.6893 37.0556 19.4932 44.7599 20.0651C52.4643 20.637 57.1996 24.1191 58.9658 30.5114C60.7321 36.9036 60.2359 42.4211 57.4771 47.0639Z" fill="#7848b0"/>
<path d="M42.9344 74.6084C40.2552 76.8829 37.329 78.4937 34.156 79.4407C30.983 80.3878 28.4293 79.2505 26.4947 76.029C24.5601 72.8074 24.5035 69.4846 26.3247 66.0607C28.146 62.6368 30.7726 61.3781 34.2046 62.2847C37.6366 63.1913 40.6194 64.9032 43.153 67.4206C45.6865 69.9379 45.6136 72.3339 42.9344 74.6084Z" fill="#7848b0"/>
<path d="M82.4955 48.8718C87.8461 51.5407 89.8956 55.6015 88.6442 61.0542C87.3927 66.5069 84.7175 70.4208 80.6184 72.796C76.5193 75.1712 72.3499 75.2159 68.1104 72.9301C63.8708 70.6443 61.5212 66.9155 61.0614 61.7437C60.6017 56.572 62.7215 52.4665 67.4208 49.4273C72.1201 46.3881 77.145 46.2029 82.4955 48.8718Z" fill="#7848b0"/>
<path d="M80.7746 27.1453C79.4346 29.4004 77.3021 30.7976 74.3771 31.3368C71.452 31.8761 68.911 30.7485 66.754 27.9542C64.5969 25.1599 64.4294 22.0714 66.2515 18.6888C68.0735 15.3062 70.8556 13.7538 74.5977 14.0316C78.3398 14.3094 80.6398 16.0007 81.4977 19.1055C82.3556 22.2103 82.1146 24.8903 80.7746 27.1453Z" fill="#7848b0"/>
</g>
<defs>
<clipPath id="clip-organic">
<rect width="100" height="100" fill="white"/>
</clipPath>
</defs>
</svg>


      
      </pattern>
      
      <clipPath id="shape">
        <path fill="currentColor" d="M739,580Q592,660,435,772Q278,884,236,692Q194,500,298.5,415.5Q403,331,515,305Q627,279,756.5,389.5Q886,500,739,580Z"></path>
      </clipPath>
    </defs>
  
    

    <g  clip-path="url(#shape)">
      <path fill="url(#pattern)" d="M739,580Q592,660,435,772Q278,884,236,692Q194,500,298.5,415.5Q403,331,515,305Q627,279,756.5,389.5Q886,500,739,580Z" />
    </g>

    
  
  </svg>